<mxfile host="65bd71144e">
    <diagram id="13dQ11fF6are8sY9VpEO" name="ページ1">
        <mxGraphModel dx="1188" dy="1907" grid="1" gridSize="10" guides="1" tooltips="1" connect="1" arrows="1" fold="1" page="1" pageScale="1" pageWidth="850" pageHeight="1100" background="#FFFFFF" math="0" shadow="0">
            <root>
                <mxCell id="0"/>
                <mxCell id="1" parent="0"/>
                <mxCell id="121" value="" style="whiteSpace=wrap;html=1;labelBackgroundColor=none;fontSize=14;" vertex="1" parent="1">
                    <mxGeometry x="1300" y="-610" width="610" height="530" as="geometry"/>
                </mxCell>
                <mxCell id="50" value="スタック" style="sketch=0;outlineConnect=0;fontColor=#232F3E;gradientColor=none;fillColor=#B0084D;strokeColor=none;dashed=0;verticalLabelPosition=bottom;verticalAlign=top;align=center;html=1;fontSize=16;fontStyle=0;aspect=fixed;pointerEvents=1;shape=mxgraph.aws4.stack;labelBackgroundColor=#FFFFFF;labelBorderColor=none;" parent="1" vertex="1">
                    <mxGeometry x="1960" y="-510.5" width="78" height="76" as="geometry"/>
                </mxCell>
                <mxCell id="85" style="edgeStyle=none;html=1;fontSize=14;" edge="1" parent="1" source="82" target="84">
                    <mxGeometry relative="1" as="geometry"/>
                </mxCell>
                <mxCell id="86" value="AssumeRole&lt;br&gt;OIDC" style="edgeLabel;html=1;align=center;verticalAlign=middle;resizable=0;points=[];fontSize=14;" vertex="1" connectable="0" parent="85">
                    <mxGeometry x="-0.1986" y="-2" relative="1" as="geometry">
                        <mxPoint as="offset"/>
                    </mxGeometry>
                </mxCell>
                <mxCell id="89" style="edgeStyle=none;html=1;fontSize=14;" edge="1" parent="1" source="82" target="88">
                    <mxGeometry relative="1" as="geometry"/>
                </mxCell>
                <mxCell id="123" value="AssumeRole" style="edgeLabel;html=1;align=center;verticalAlign=middle;resizable=0;points=[];fontSize=14;" vertex="1" connectable="0" parent="89">
                    <mxGeometry x="-0.2168" relative="1" as="geometry">
                        <mxPoint as="offset"/>
                    </mxGeometry>
                </mxCell>
                <mxCell id="82" value="GitHub Actions" style="shape=image;verticalLabelPosition=bottom;labelBackgroundColor=default;verticalAlign=top;aspect=fixed;imageAspect=0;image=data:image/png,iVBORw0KGgoAAAANSUhEUgAAAOEAAADhCAMAAAAJbSJIAAAAkFBMVEX///8giP95uP8Agf8Af/8Agv+ix/8ahv8Aff8vkP8RhP89kv9ztf9wtP9Gl//7/f/n8f/y+P/t9f9ZoP/2+v/X5//l8P+91//F3P8iiv+Nu/9Snf/Q4/+bw/99sv+61f+vz/9zrf9np/+qzP9+s/9rqf/d6/+HuP+Wxv+BvP/J3/+ZyP+hzP+JwP+u0//C2P9dc8AiAAAWwElEQVR4nO1dCZPiuA6GdoKJuQlXCPfZzZvu/v//7hHAsnwldmimM1Wr2q3a2gkZf7YsS7L0pVZzkd5ktlzF3ShJkqibbueNy9Dpd/+IzOYpDUhIaZ3W69d/KWWMkGTXGP/2yH5CetNdQBjNoKlCWcAOl98e4JMyXlFiAodAJsvBb4+yvFzSgOXhuwsLtv3fHmk5GadBMTyO8R+0O8OjK74bRrL87QH7SoMwd3yZhPV/yuYMu8QA4npGhCEhIQuNpjXY/vaw3WWt2U8akjBKV8vG5nu6aSy3aUL0RQ6T02+P3FEOgQovSOeXkfzQcHqOglB5kGx+ZcCe0kvlcdOgu7eceKd5oqx28x8wOINI0j5GjrmqN+sG0vPk8LcGWlYGEV4UFqwmRb9YxJJSk9XfGGZ5GUkAg9TJdMwSrNek2ia1hQBSunb92RJ7B5VW1BTtKZKOin/A5YR3b1Bdc3NA57yvVYzRb4PZa8b3tGyQySDeg5yLX1NSzWBjggCGJaL3PYLY/fnh/YAgK0NKuV+bpnjB/KdH9wOyFBuJLEq+QqxiUL0UDtLRprYHR+PZpfDov8oZZqmCehqDjmrB7CUNA0JI0ugVvwUODbJ/zThLywyWkMbynwxjfpyH9WnRa0YwT5S+aqglRZgZKh/0ExztBnFRPmYBMxVW69yfwQYK5HUaJVJ4RMNGwZsO3EelzMMner10OQ5VR7dqJE9a+SdJD/KPhZPxN0XoViCbzH6zrgoNzrnv2ohT55VD9pQjn3emjH5pyrixJNelgy1Nvl85Zi8ZQHxHFEsSm3OmwTEnk7/mi0h3rx22h4BiMTV6bQkTIy9juLG/LrHN1+8JrFSgWhGOMGws5ewhJV2rk7PnsxFW5dQfcTuju1ocIWvUJqmcV6OBzbsGpWex5Ym/LVOupLp9RwivysxkuxMmFg99B7am2M/7K7LiAw+0fSMhrA2OSq442BohwJSRitxlcBiGeEBGeHXCE8XiMFO2qsdPUVYNz20AllTfWCrCa4DUVHajyVXlLpLqIf2SLECn9INcR1g7KfdSNNC9sznX++SlI3eVDVc8oh/jBoTZ3aLsB5CumngCRz6oxB1/3oQbEdaGO9niMKaco5AwKJsP+VnZ8k2T6n9mRni1lnXJ4tBEtqkQCJPCmPlvSPoYDjPcqdgQ1nor6Zo/VIxUxP9/JSIofhmjoajlIKzVxhG2OMrZzv1Ag3n+BYF1MHiROQjl+xglUuJeDavELQ0g3Oh/louw1hcVN4qawt6uxFUbLIPBKuQjvMaCiRnK+WGfqxEi8nCOGBywIoQX8PhkhIdKIeSWxl9L0blYaS1tlbOlsm+jKMCOVcnSpByFIRDIOy1a+LQI5OQonLH5ebm/JHka5Xriq2uV2H73K8L9UtN1kQ3hmuZ6bQPu6lbDa2t4e959uYSmTtUb1VO1PG8R6uixrBHhsqlET5GadlvzFa5G9NSHCdcPRAPCRaTWvekWCjI/0UtH7iq9uj240BAOtspNRhAb6i54aFGNA1+YdsNGVBFqCUVj3dSQa0VFMlHi+kUvwZARnrpqUnhlzCY2IC9SkXqFMUy5Fs1hhL2zUttOWhYAcBvJXj10V6FWNUUIZ4msoCYLcxfI0tDjiwfuLAdQUzVHDQjnSvLJnCe9yxyUtBLnfSZwBawlo4S+yQoaMvvge+CvVugmH278AsUH2cnAYAEPOVcuS6hVqETodBewpuoB1ggNAK0W5iY9eE6drt+UgahUuFj+QCxgQYYQEsy09coh+4ooKlH8rKXaPBPs8q+uRX2cKSvyezKxljKlcnNCUlRfAQ5SRXxSEKg3Ue/yey2xFYtKaWpZZqOaS4gXkarH/qF5W0ZKg25hYe1JvKZiS4iO6TpTA4L+OSFBQHfFpd89UQVXJUP6ELHZDCXMg1PfpehAbFptmiogF1TCXLIO5gh6QFklgntFVsJqBptSLyBPvuDlgkpJy3TZ7QTAsDJBhSwn3Pbim6weoYOTRhWpFNJkjXIwJPbaSSccPbJqtsxkMkerSJlHQVMD+68VPCiEbKW7iK1jfHdK8c+alYl7jSJBZMzl2BgdpPxN2aPmr8kRQ6QkKvIue0v5CqNZdYBarzpJNjkmpz8ncn4jqLaK3mWpJA3DcDc1bsj+PiVKhp9V2cgIuYRKdoaSZnc+w57p4LReJYH6HGtVprC7QPotLT1DGSG0FR+358N2F0csCLU+BZpLjDH53i/n5/mysbn8mMs6uGwat5fuZy6ddZKo6e07hDqjjDFq5P24Gt6N7W3jZcqCjDGEXf8JSZAcN08v9nBzTPA7Wbz0u0JYRLnsSTr64Gg5PCfzhKhMRZSQdPOEZ9fbdIm2lRhJ5l5L2QgdGJRgxJHFxMxilR4EfkLPJRdyeGCW6Q+D2MfU9eZMnScbvpbl1BwrrBnyz8JgXmIdR+c88ioaxD7KOljmM33dXsmCruUM7G2LiJhY3TtdtWFmnUAY/cKiaawpPH7bdQZWtvTUhToQMQU7r2UcxQ7sVazudyoP93FATPN23drsOLMOcK6ny43D8SEmWtTd2Ku8eStGszm0eGVsUZl1Jq1drnmODUxT1HjQBM6autG7IS3vJP5Jhj3cRsSrw3w/OxUoV1dZ9avDwKJ0F3cTpqm9a1KnoWhFpkRJN96lEdNYq0LvTg8oK3IKqGoyExMLktV68piTwbixI7IBazqt4l4CeD1Sd40xd48mmRMpgQwNdfluCJ0KSGIMMAxXqjr3pjKfnwsZyhoDpEE6VbVofJDMhW82DBDWw+LAf4WTIcHZ6IcucF2HVjZmeB4BpKRrtJYDqWXJk5tDICy+ccEsMKH9rmOD9qNa+qfJCA2d2nfKCe9/P5ocgbCQ8aKPAOZeVuEQpkinUENy2MpL5Z2RvfVKvDdQQrzgPO2KwRRZSbRf8yccWZmwwBAgDfJqnUMITd1D+G9Auf3ClIa46chtcxsJhS42IN9iFX30FCHMH3hPDMblEBBkKGpjERZxCe/SWoysrkd3IEaokoNIshS9/U6ukyCII9a3TgTtjVP1gyg+8OCQkRHa9VTQYjhugom4mbUuolhCR4otYZfcF1FCWCdWEwkFONTh3LzJHigYqOXEGMDGcuXWHMA8u1cTyAjtznsEg3HWj27RaEQ9kzM1ExRMFJhF/BPFs7XQDYxhB+Spx2DFSAJ1R3D5bNNroBLJPac2EQkFYTPUsTVdUyUqwjoxHktzF8KIYZIpUQAvEItoPKGhviPXzGyDW2DH96lgrnDt+NAQXkNXw4xCGMnsXtjwEdBBDziQoZirNeGvzttTjxslocdgD1zVVEd4HeJKnXMo8M4pSxxCQx9fEijXNHdJccOYR8sEV2bAE8erEqz2ywXhNaydy1r+ndPa/5B+XRyA/P/xGk+zJYHVsLtrW70Sa6ZhdkUop5dCku5R8ABWL7T5vEMBUBgj2DSB6RfAS2Ld2ujSE6Z2BBtx44mwdZYTMDQM6vH2vNw3Go19rCqgKmgF6yHoJJRIsHn2Gkn2UM2pkedwwVeeQie5/XJttgaEkZ5Eo/TGZX4V8GfENvw+nIX96KOsEaWwziPhdoaawJ814TWn+aEhtgcGiFxh3yZPhPAanxTlLKGEc9gNGAtaDyx4BSlDdwxJzrtAQKnPzZCFkKHDALEjwneMqzHFCOXSEiNCvmXufjVNbjMuryC+ROkWTVkdmaG7DtFH7CkBxGcf39yupcoSwlrv0MwdE7do/KSjySBnBXHZbQ7Ch8cD4dkNom0FUf+co/MtI8wSInmqyvkHICi4rqK0gkpNkYU0TUb4OCwQe94GR9B1hUUG/IiSCK/uZNd+B8QttCgGpFFkU9Ga4xo+9tNCrFqY2gEKUprSCK9/15ZZvoLBncG9IbWfAVSjvMj0mCqP/TTAZ4MdIMRx5fYhl950FWUfvKBcHg/xFu6e6U5BW0HUeFWnmsDvuAt0ME2bTnQEtA6O6Sgzwkz6s8ZqF6fdTMDl5G896Wusr2CtD2NudTUBZx6aeGP9JszA5ATehyPRvx0hFp6kEQS0GkTDCgp31tCJLOAL+hQNogEgnLGuTLFuCIXnDR6WAtEEUCiUkZkXGPxE6kSBaAIo2skdM4puCE3tsSe8FQ0qWhPTbd4ycJSgv1qCaAKIGmMdg3w3hMIoosdOqCXFtIKoh9WoUDBWHAfhbLkxik8MI8kVR4RnGA1KAEzAIafG+eQ+soUKfmwMqwGiGeAlP6o2iCNCOI4lhZvcHS1WN2Y7+0XZK3NWaXeH2DTnYSCX7kzd6IjQ0qs5SQilJDLvCHDtbFYP0lsyYcD26lMxSwZVdMU604q7IoTRKK5EY7u1hOgnyPcGlpqtiXhCykhcDse5JQcOCci82xBZXBEORfuhYxpPEG1b8zDgtjp7YCJv41xZ5ooQ3TG4pYCA4Twn3ysalkInRh+wTToxsl2cEeIbYIebC3ETluc/itjDpfhmIFIGNsU3iDPC2lm0d7UKU5Uz1E6WU6xwQpeehbaxJ+K00KPEzR3hSKwhbRWs4lTUY+QzSq3EtBXRGAzQt1Z8CAHcEeJ1oUnuXlyiqoL8OLWHclX5RWtjFDR6FWN4IJS+NmD2OG4ykD6gVGCWFo4tWbj3PPT6QJoPQil1RloWEykx2RY32uChU9tJtMAMa558AF4IB1I4YaxM3svfanOY7a30g2SvW7GFUnzq1xPghRCHE/WscC+SCjUHs61c6FtUInMXuRowZKsZhjBeRjI+4tmg4IewNtaKL2k836+/p+vGoRsqtftuAFXyg6wDpLtqrKff6/08plr5pS+9kSfCa2ivNQs8PtOqpSDdq121qtzspdd36i81B6I/irA2bLkVLNs/QGCQg+M3isOuf1+ON8L7zXoxQD8eoqlTn0up7/aWQFibUj3tpwhJPbtKhsWf0jYzrBVKGYS10aqZq6qlxrLOb7hgwaocd1MphNfgdWttmqGkXpL6s1G36ioLtt4mhr+1LBNif5kYLjdoSNLy7C69dWrqc2EkWZbviSuN8CqLcxRcj0AoGglJkO6fbNnvN9KsN4+/83o4NqPzUw2szyC8ynC23HaTpJ4kSXzej3+EcqE33p/j5PbS7nY5e7aj8UmE/4D8h/Dfl/8Q/vvyH8J/X/5D+O/L0wgns4zhYb5sfC1+jDVi1B9fZtOv6exyep6QY+9ZYSTJaZnekw23fwiJVuunRzRa/HnrdDrtu1z/4332nKsLNVTe9M79eaSVh7GMNeKZ4Szer5jeZGl3PqZPqAeUTXt+0vASN22sEWqRuLMMvjqdN6O0O/8rGx6KVhGvNOQpN+fA3G4DFel9aasnYyyprHC36/HRxt4qvwo1q13wamTNZNHOwXfH+OX7zrvAPnSmK1gkhYko61cwbdL7n0U/JYwfpVSVX8M6d54uDQQIBgkTj+FM3goW8CEdb9WooVqgnH4fLDtDjSQ1UTxQd70fOyzgA+Iff4Ti66lOKdxUyT4xEpAojeNu0gxCBaYrA9pMAZgdg2+f7//7/OhoZ0f73RshfOTXSU1V1ojoLPIop82RlWGNuMgAO+0/F3jnYPz1IYNsf3pDhHoIh07VHV5B1tyq90CjdUtmjXBQ1IUEsPO5UHfL5I+Esf0/Z2gPAb+tuBYO1ynT4GBjjcAPFZqbSUfCZyzcGH1JD/meGoKAvqjOCHN0hC1rEckeE2MUOfQ9aQGtS97/QMvY8b1ChO8kFBQaDTFrRN56S6wRBddF72Lk7Y+8GcbL2PZ0U1ErR25yWRQw0aBAUdCRkl8ZgjZhp2B/oUe9DaooscgLoRAvRfFJhzoH897ZEytYfNKd0Gx46qkoBcrRKUE54HTO7UBR82rqvwChi4XEjkHx05KIY9xeCFSaNYKGVmdpKIbsdMpN4Xm7TTKL+C6A9ZAWXTL+rBHWGRFL2HGzHcguOT0v5Iwq5M0quBdL6GjIUG+U5Yme95KMxC98b9xQAV1zY3pAsEY4X/BCLaHN453Bijh7YsKF9XXexigkMpWJuLFGyFLIGvEJC+JOzyfMqW/qBpOmGQopnFgjVClgjRiWWY8LX/e2d6goMZVpnxkVNfIeoXsBawQoqdee8tdskBjFDZRE0qBcWCN0KWCNeIez0Cfh8add5ld3kWM/EqHWeBNrxGmetmK5RmJxSLtHxLKbzxoBQ/UKh+DY75RI2ijxexjEnDnCwBpxaF5Dehai0uVBGmRNp4TCLMARQ2q6DPhQ216nNzh67TIVGmoOhoaEtHareSPWFgPKCSHKGIBPAJ8YANYIuV5/cBovFpc1bEO/BDK3wO1SycWzIRF6I8JWtyGqXW4+WkBR6MEDTWCNwK766L1zv5cAu+83RtiIJZJSV5nm80RzB2yUWR5Ku7cCpnuQezv9WHIryIZOLeho3QiAWub3w3OI/Pf+OambDOO82ko+0uwcoOmoNmyBCmYt+llvxSLMlv3xNuAhEafPl5YZ9TT7cCJ6zoyQaWKnUOYHW+YA3C46soudO5XEFcz9q2AZKwvvbOb7F3WafagAfddiAVNUFmEWKNnS9rztOkN4M6uZLbkvbLZctzaB7M6VWxaOUDTO9PTktmfuTESJ5RHWRsvEXAfJtTQ7Bm57MtPNuxnJPmF3ax/J3J/m40xMX7mGpbX0LrOdRlJcF6wRt95Ist3vQiCyyqgxKZ3vM4BAHcMjEhQiqglu730Izp6/26bIYL1NmjfmCMFTAdp2c/HobcM+Lgt72X/T+8EC2Sd+RGJOp08VYttvXF9P2lJZBpfG+dhttTTWiKGgyuA9OhfBgsgPC0GbgN2W2Ud2YHyAunrGQdydbW+ewyYLMBcJ1oj6zRpR0oLxrR/fU2yCdw63PoF8YdDr9ZDX5pk4g6Uvc9NmFXHbL0azjIKAdHG4OFwlQcBisV4HbWKwgIPp5X71YWI8WO2LBaInKTU46GvV80Ppf+WzRkD05GUUwaXxDvLzxcQaUSiLfNYIEQH7xEEfpealWOAL3z7fXhOsEcadBrdObQ8fGhLf5UILuwAdhQfR9LAoeyWsqXuvCKj2z27DGko3mtfDJECXZeM/gAjR3fCj20bXn7iKYI1wZcQtZo0QybaOazUQJCDbP/6VNKFyP8gaASrn6oEJl++HLWkmiJnaaQeIiwK7cRL3ZW52oy+eLxfg578ddeM7zJ/4sEoeg6NYRJebi8Hb2wuXEFN50KjQ9n27sUZMfC49eyLw+umj4i6YNSIpqmkQ1yD5dYoop1GU+R7gYgXfwbvJFOlpPZ81AvNL5L4Tl2J0cs3jBD/502chl1KsEQWDQZfzb513u/bjwPk1OnoTiTWia1nGBk5I5kzEQ6Sh29LfExw2l6j7cpYhLs2jwc6AcSN9fbComiaTPzg31fkwYJwoxafl+oHdRKYSpEGrgb+ANZodmHQv4PJZDulyPsPY/pK+qtWfKaV7npcAvjKWbzYoC+rpobH5Xm+WxxZRWSMcuYxliG/tTvvzz/QyHi9mX+9vWvll6ZJ2R5nUlTQjfTA8MK2G1vwNApPoJdD3VgtD6Xf79d98HUaurBEeBftfGkSztD9e4ctoUvh9x7v+ejWtF1bq37fgC7xRo0yLPjdZgjVioKVR9QV88626LC+jAi6S0P8jnddlzK/Xb3e+fqQX3lVOR+tHPimp+35p8iHTN+s6tjt//vpnpftzjf7ntv2aT7BG1Bafps6gduftmdauJ+R7m1yPifspQW+sEay7fPK4Gk4/r+ehKMq8HhofX69ytJ0GNFse4m6UJFF6PG/GP+JP9SaXrz+fWTD48b6Zju2r939Ej0ovazgdKAAAAABJRU5ErkJggg==;" vertex="1" parent="1">
                    <mxGeometry x="937.5" y="-355" width="85" height="85" as="geometry"/>
                </mxCell>
                <mxCell id="83" value="ログインアカウント" style="points=[[0,0],[0.25,0],[0.5,0],[0.75,0],[1,0],[1,0.25],[1,0.5],[1,0.75],[1,1],[0.75,1],[0.5,1],[0.25,1],[0,1],[0,0.75],[0,0.5],[0,0.25]];outlineConnect=0;gradientColor=none;html=1;whiteSpace=wrap;fontSize=12;fontStyle=0;container=1;pointerEvents=0;collapsible=0;recursiveResize=0;shape=mxgraph.aws4.group;grIcon=mxgraph.aws4.group_aws_cloud_alt;strokeColor=#232F3E;fillColor=none;verticalAlign=top;align=left;spacingLeft=30;fontColor=#232F3E;dashed=0;" vertex="1" parent="1">
                    <mxGeometry x="840" y="-666" width="227.5" height="130" as="geometry"/>
                </mxCell>
                <mxCell id="84" value="&lt;span style=&quot;font-size: 14px; background-color: rgb(255, 255, 255);&quot;&gt;oidc-role&lt;/span&gt;" style="sketch=0;outlineConnect=0;fontColor=#232F3E;gradientColor=none;fillColor=#BF0816;strokeColor=none;dashed=0;verticalLabelPosition=bottom;verticalAlign=top;align=center;html=1;fontSize=12;fontStyle=0;aspect=fixed;pointerEvents=1;shape=mxgraph.aws4.role;" vertex="1" parent="83">
                    <mxGeometry x="101" y="40" width="78" height="44" as="geometry"/>
                </mxCell>
                <mxCell id="87" value="データストリーミング基盤アカウント" style="points=[[0,0],[0.25,0],[0.5,0],[0.75,0],[1,0],[1,0.25],[1,0.5],[1,0.75],[1,1],[0.75,1],[0.5,1],[0.25,1],[0,1],[0,0.75],[0,0.5],[0,0.25]];outlineConnect=0;gradientColor=none;html=1;whiteSpace=wrap;fontSize=12;fontStyle=0;container=1;pointerEvents=0;collapsible=0;recursiveResize=0;shape=mxgraph.aws4.group;grIcon=mxgraph.aws4.group_aws_cloud_alt;strokeColor=#232F3E;fillColor=none;verticalAlign=top;align=left;spacingLeft=30;fontColor=#232F3E;dashed=0;" vertex="1" parent="1">
                    <mxGeometry x="1130" y="-666" width="970" height="726" as="geometry"/>
                </mxCell>
                <mxCell id="124" value="アカウントごとに手動作成" style="text;html=1;align=center;verticalAlign=middle;resizable=0;points=[];autosize=1;strokeColor=default;fillColor=none;fontSize=14;" vertex="1" parent="87">
                    <mxGeometry x="-30" y="274.5" width="190" height="30" as="geometry"/>
                </mxCell>
                <mxCell id="95" style="edgeStyle=none;html=1;fontSize=14;entryX=-0.028;entryY=0.491;entryDx=0;entryDy=0;entryPerimeter=0;" edge="1" parent="1" source="88" target="90">
                    <mxGeometry relative="1" as="geometry">
                        <mxPoint x="1260.0000000000002" y="-370" as="targetPoint"/>
                    </mxGeometry>
                </mxCell>
                <mxCell id="103" value="AssumeRole" style="edgeLabel;html=1;align=center;verticalAlign=middle;resizable=0;points=[];fontSize=14;" vertex="1" connectable="0" parent="95">
                    <mxGeometry x="-0.1071" y="1" relative="1" as="geometry">
                        <mxPoint as="offset"/>
                    </mxGeometry>
                </mxCell>
                <mxCell id="96" style="edgeStyle=none;html=1;entryX=-0.041;entryY=0.469;entryDx=0;entryDy=0;entryPerimeter=0;fontSize=14;" edge="1" parent="1" source="88" target="91">
                    <mxGeometry relative="1" as="geometry"/>
                </mxCell>
                <mxCell id="104" value="AssumeRole" style="edgeLabel;html=1;align=center;verticalAlign=middle;resizable=0;points=[];fontSize=14;" vertex="1" connectable="0" parent="96">
                    <mxGeometry x="-0.1234" relative="1" as="geometry">
                        <mxPoint as="offset"/>
                    </mxGeometry>
                </mxCell>
                <mxCell id="97" style="edgeStyle=none;html=1;entryX=0.003;entryY=0.517;entryDx=0;entryDy=0;entryPerimeter=0;fontSize=14;labelBackgroundColor=#FFFFFF;" edge="1" parent="1" source="88" target="92">
                    <mxGeometry relative="1" as="geometry"/>
                </mxCell>
                <mxCell id="105" value="AssumeRole" style="edgeLabel;html=1;align=center;verticalAlign=middle;resizable=0;points=[];fontSize=14;" vertex="1" connectable="0" parent="97">
                    <mxGeometry x="-0.1469" y="1" relative="1" as="geometry">
                        <mxPoint as="offset"/>
                    </mxGeometry>
                </mxCell>
                <mxCell id="98" style="edgeStyle=none;html=1;entryX=-0.019;entryY=0.557;entryDx=0;entryDy=0;entryPerimeter=0;fontSize=14;" edge="1" parent="1" source="88" target="93">
                    <mxGeometry relative="1" as="geometry"/>
                </mxCell>
                <mxCell id="106" value="AssumeRole" style="edgeLabel;html=1;align=center;verticalAlign=middle;resizable=0;points=[];fontSize=14;" vertex="1" connectable="0" parent="98">
                    <mxGeometry x="-0.2762" y="-1" relative="1" as="geometry">
                        <mxPoint as="offset"/>
                    </mxGeometry>
                </mxCell>
                <mxCell id="125" style="edgeStyle=none;html=1;entryX=0.498;entryY=1;entryDx=0;entryDy=0;entryPerimeter=0;labelBackgroundColor=#FFFFFF;fontSize=14;endArrow=none;endFill=0;" edge="1" parent="1" source="88" target="124">
                    <mxGeometry relative="1" as="geometry"/>
                </mxCell>
                <mxCell id="88" value="&lt;span style=&quot;font-size: 14px; background-color: rgb(255, 255, 255);&quot;&gt;cdk-role&lt;/span&gt;" style="sketch=0;outlineConnect=0;fontColor=#232F3E;gradientColor=none;fillColor=#BF0816;strokeColor=none;dashed=0;verticalLabelPosition=bottom;verticalAlign=top;align=center;html=1;fontSize=12;fontStyle=0;aspect=fixed;pointerEvents=1;shape=mxgraph.aws4.role;" vertex="1" parent="1">
                    <mxGeometry x="1160" y="-337" width="78" height="44" as="geometry"/>
                </mxCell>
                <mxCell id="94" value="&lt;br&gt;&lt;br&gt;&lt;br&gt;" style="text;whiteSpace=wrap;html=1;fontSize=14;" vertex="1" parent="1">
                    <mxGeometry x="1500" y="-270" width="260" height="90" as="geometry"/>
                </mxCell>
                <mxCell id="108" style="edgeStyle=none;html=1;entryX=0;entryY=0.5;entryDx=0;entryDy=0;entryPerimeter=0;labelBackgroundColor=#FFFFFF;fontSize=14;" edge="1" parent="1" source="90" target="107">
                    <mxGeometry relative="1" as="geometry"/>
                </mxCell>
                <mxCell id="109" value="PassRole" style="edgeLabel;html=1;align=center;verticalAlign=middle;resizable=0;points=[];fontSize=14;" vertex="1" connectable="0" parent="108">
                    <mxGeometry x="-0.1471" y="-2" relative="1" as="geometry">
                        <mxPoint as="offset"/>
                    </mxGeometry>
                </mxCell>
                <mxCell id="90" value="&lt;span style=&quot;color: rgb(0, 0, 0); font-size: 14px; text-align: left;&quot;&gt;cdk-hnb659fds-deploy-role&lt;/span&gt;" style="sketch=0;outlineConnect=0;fontColor=#232F3E;gradientColor=none;fillColor=#BF0816;strokeColor=none;dashed=0;verticalLabelPosition=bottom;verticalAlign=top;align=center;html=1;fontSize=12;fontStyle=0;aspect=fixed;pointerEvents=1;shape=mxgraph.aws4.role;flipV=0;labelBackgroundColor=#FFFFFF;" vertex="1" parent="1">
                    <mxGeometry x="1430" y="-494.5" width="78" height="44" as="geometry"/>
                </mxCell>
                <mxCell id="112" style="edgeStyle=none;html=1;labelBackgroundColor=#FFFFFF;fontSize=14;" edge="1" parent="1" source="91" target="111">
                    <mxGeometry relative="1" as="geometry"/>
                </mxCell>
                <mxCell id="113" value="ソースコードなど&lt;br&gt;アップロード" style="edgeLabel;html=1;align=center;verticalAlign=middle;resizable=0;points=[];fontSize=14;" vertex="1" connectable="0" parent="112">
                    <mxGeometry x="-0.1513" relative="1" as="geometry">
                        <mxPoint as="offset"/>
                    </mxGeometry>
                </mxCell>
                <mxCell id="91" value="&lt;span style=&quot;color: rgb(0, 0, 0); font-size: 14px; text-align: left;&quot;&gt;cdk-hnb659fds-file-publishing-role&lt;/span&gt;" style="sketch=0;outlineConnect=0;fontColor=#232F3E;gradientColor=none;fillColor=#BF0816;strokeColor=none;dashed=0;verticalLabelPosition=bottom;verticalAlign=top;align=center;html=1;fontSize=12;fontStyle=0;aspect=fixed;pointerEvents=1;shape=mxgraph.aws4.role;flipV=0;labelBackgroundColor=#FFFFFF;" vertex="1" parent="1">
                    <mxGeometry x="1430" y="-391.5" width="78" height="44" as="geometry"/>
                </mxCell>
                <mxCell id="115" style="edgeStyle=none;html=1;labelBackgroundColor=#FFFFFF;fontSize=14;" edge="1" parent="1" source="92" target="114">
                    <mxGeometry relative="1" as="geometry"/>
                </mxCell>
                <mxCell id="116" value="コンテナイメージ" style="edgeLabel;html=1;align=center;verticalAlign=middle;resizable=0;points=[];fontSize=14;" vertex="1" connectable="0" parent="115">
                    <mxGeometry x="-0.2553" y="1" relative="1" as="geometry">
                        <mxPoint x="11" y="1" as="offset"/>
                    </mxGeometry>
                </mxCell>
                <mxCell id="92" value="&lt;span style=&quot;color: rgb(0, 0, 0); font-size: 14px; text-align: left;&quot;&gt;cdk-hnb659fds-image-publishing-role&lt;/span&gt;" style="sketch=0;outlineConnect=0;fontColor=#232F3E;gradientColor=none;fillColor=#BF0816;strokeColor=none;dashed=0;verticalLabelPosition=bottom;verticalAlign=top;align=center;html=1;fontSize=12;fontStyle=0;aspect=fixed;pointerEvents=1;shape=mxgraph.aws4.role;flipV=0;labelBackgroundColor=#FFFFFF;" vertex="1" parent="1">
                    <mxGeometry x="1430" y="-287.5" width="78" height="44" as="geometry"/>
                </mxCell>
                <mxCell id="118" style="edgeStyle=none;html=1;labelBackgroundColor=#FFFFFF;fontSize=14;" edge="1" parent="1" source="93" target="117">
                    <mxGeometry relative="1" as="geometry"/>
                </mxCell>
                <mxCell id="119" value="ReadOnlyAcdess" style="edgeLabel;html=1;align=center;verticalAlign=middle;resizable=0;points=[];fontSize=14;" vertex="1" connectable="0" parent="118">
                    <mxGeometry x="-0.169" y="1" relative="1" as="geometry">
                        <mxPoint as="offset"/>
                    </mxGeometry>
                </mxCell>
                <mxCell id="93" value="&lt;span style=&quot;color: rgb(0, 0, 0); font-size: 14px; text-align: left;&quot;&gt;cdk-hnb659fds-lookup-role&lt;/span&gt;" style="sketch=0;outlineConnect=0;fontColor=#232F3E;gradientColor=none;fillColor=#BF0816;strokeColor=none;dashed=0;verticalLabelPosition=bottom;verticalAlign=top;align=center;html=1;fontSize=12;fontStyle=0;aspect=fixed;pointerEvents=1;shape=mxgraph.aws4.role;flipV=0;labelBackgroundColor=#FFFFFF;" vertex="1" parent="1">
                    <mxGeometry x="1430" y="-184.5" width="78" height="44" as="geometry"/>
                </mxCell>
                <mxCell id="120" style="edgeStyle=none;html=1;labelBackgroundColor=#FFFFFF;fontSize=14;" edge="1" parent="1" source="107" target="50">
                    <mxGeometry relative="1" as="geometry"/>
                </mxCell>
                <mxCell id="107" value="CloudFormation" style="sketch=0;points=[[0,0,0],[0.25,0,0],[0.5,0,0],[0.75,0,0],[1,0,0],[0,1,0],[0.25,1,0],[0.5,1,0],[0.75,1,0],[1,1,0],[0,0.25,0],[0,0.5,0],[0,0.75,0],[1,0.25,0],[1,0.5,0],[1,0.75,0]];points=[[0,0,0],[0.25,0,0],[0.5,0,0],[0.75,0,0],[1,0,0],[0,1,0],[0.25,1,0],[0.5,1,0],[0.75,1,0],[1,1,0],[0,0.25,0],[0,0.5,0],[0,0.75,0],[1,0.25,0],[1,0.5,0],[1,0.75,0]];outlineConnect=0;fontColor=#232F3E;gradientColor=#F34482;gradientDirection=north;fillColor=#BC1356;strokeColor=#ffffff;dashed=0;verticalLabelPosition=bottom;verticalAlign=top;align=center;html=1;fontSize=12;fontStyle=0;aspect=fixed;shape=mxgraph.aws4.resourceIcon;resIcon=mxgraph.aws4.cloudformation;labelBackgroundColor=#FFFFFF;" vertex="1" parent="1">
                    <mxGeometry x="1700" y="-511.5" width="78" height="78" as="geometry"/>
                </mxCell>
                <mxCell id="110" value="&lt;div style=&quot;text-align: left;&quot;&gt;&lt;font color=&quot;#000000&quot;&gt;&lt;span style=&quot;font-size: 14px;&quot;&gt;cdk-hnb659fds-cfn-exec-role&lt;/span&gt;&lt;/font&gt;&lt;/div&gt;" style="sketch=0;outlineConnect=0;fontColor=#232F3E;gradientColor=none;fillColor=#BF0816;strokeColor=none;dashed=0;verticalLabelPosition=bottom;verticalAlign=top;align=center;html=1;fontSize=12;fontStyle=0;aspect=fixed;pointerEvents=1;shape=mxgraph.aws4.role;flipV=0;labelBackgroundColor=#FFFFFF;" vertex="1" parent="1">
                    <mxGeometry x="1770" y="-580" width="78" height="44" as="geometry"/>
                </mxCell>
                <mxCell id="111" value="S3" style="sketch=0;outlineConnect=0;fontColor=#232F3E;gradientColor=none;fillColor=#3F8624;strokeColor=none;dashed=0;verticalLabelPosition=bottom;verticalAlign=top;align=center;html=1;fontSize=12;fontStyle=0;aspect=fixed;pointerEvents=1;shape=mxgraph.aws4.bucket;labelBackgroundColor=#FFFFFF;" vertex="1" parent="1">
                    <mxGeometry x="1703" y="-408" width="75" height="78" as="geometry"/>
                </mxCell>
                <mxCell id="114" value="ECR" style="sketch=0;points=[[0,0,0],[0.25,0,0],[0.5,0,0],[0.75,0,0],[1,0,0],[0,1,0],[0.25,1,0],[0.5,1,0],[0.75,1,0],[1,1,0],[0,0.25,0],[0,0.5,0],[0,0.75,0],[1,0.25,0],[1,0.5,0],[1,0.75,0]];outlineConnect=0;fontColor=#232F3E;gradientColor=#F78E04;gradientDirection=north;fillColor=#D05C17;strokeColor=#ffffff;dashed=0;verticalLabelPosition=bottom;verticalAlign=top;align=center;html=1;fontSize=12;fontStyle=0;aspect=fixed;shape=mxgraph.aws4.resourceIcon;resIcon=mxgraph.aws4.ecr;labelBackgroundColor=#FFFFFF;" vertex="1" parent="1">
                    <mxGeometry x="1700" y="-304.5" width="78" height="78" as="geometry"/>
                </mxCell>
                <mxCell id="117" value="AWS Resource" style="outlineConnect=0;dashed=0;verticalLabelPosition=bottom;verticalAlign=top;align=center;html=1;shape=mxgraph.aws3.cloud_2;fillColor=#F58534;gradientColor=none;labelBackgroundColor=#FFFFFF;fontSize=14;" vertex="1" parent="1">
                    <mxGeometry x="1703" y="-60" width="75" height="75" as="geometry"/>
                </mxCell>
                <mxCell id="122" value="CDK Bootstrapで作成されるリソース" style="text;html=1;align=center;verticalAlign=middle;resizable=0;points=[];autosize=1;strokeColor=none;fillColor=none;fontSize=14;" vertex="1" parent="1">
                    <mxGeometry x="1300" y="-600" width="260" height="30" as="geometry"/>
                </mxCell>
                <mxCell id="126" value="既存のRoleを使用" style="text;html=1;align=center;verticalAlign=middle;resizable=0;points=[];autosize=1;strokeColor=default;fillColor=none;fontSize=14;" vertex="1" parent="1">
                    <mxGeometry x="970" y="-710" width="140" height="30" as="geometry"/>
                </mxCell>
                <mxCell id="127" style="edgeStyle=none;html=1;entryX=0.535;entryY=1.137;entryDx=0;entryDy=0;entryPerimeter=0;labelBackgroundColor=#FFFFFF;fontSize=14;endArrow=none;endFill=0;" edge="1" parent="1" source="84" target="126">
                    <mxGeometry relative="1" as="geometry"/>
                </mxCell>
            </root>
        </mxGraphModel>
    </diagram>
</mxfile>